<?xml version="1.0" encoding="UTF-8" standalone="no"?>
<svg
   xmlns:dc="http://purl.org/dc/elements/1.1/"
   xmlns:cc="http://creativecommons.org/ns#"
   xmlns:rdf="http://www.w3.org/1999/02/22-rdf-syntax-ns#"
   xmlns:svg="http://www.w3.org/2000/svg"
   xmlns="http://www.w3.org/2000/svg"
   xmlns:sodipodi="http://sodipodi.sourceforge.net/DTD/sodipodi-0.dtd"
   xmlns:inkscape="http://www.inkscape.org/namespaces/inkscape"
   viewBox="0 0 448 512"
   version="1.1"
   id="svg4"
   sodipodi:docname="book.svg"
   inkscape:version="0.92.1 r15371">
  <metadata
     id="metadata10">
    <rdf:RDF>
      <cc:Work
         rdf:about="">
        <dc:format>image/svg+xml</dc:format>
        <dc:type
           rdf:resource="http://purl.org/dc/dcmitype/StillImage" />
      </cc:Work>
    </rdf:RDF>
  </metadata>
  <defs
     id="defs8" />
  <sodipodi:namedview
     pagecolor="#ffffff"
     bordercolor="#666666"
     borderopacity="1"
     objecttolerance="10"
     gridtolerance="10"
     guidetolerance="10"
     inkscape:pageopacity="0"
     inkscape:pageshadow="2"
     inkscape:window-width="1360"
     inkscape:window-height="705"
     id="namedview6"
     showgrid="false"
     inkscape:zoom="1.1232666"
     inkscape:cx="47.818936"
     inkscape:cy="256"
     inkscape:window-x="-8"
     inkscape:window-y="-8"
     inkscape:window-maximized="1"
     inkscape:current-layer="svg4" />
  <path
     d="M448 360V24c0-13.3-10.7-24-24-24H96C43 0 0 43 0 96v320c0 53 43 96 96 96h328c13.3 0 24-10.7 24-24v-16c0-7.5-3.5-14.3-8.9-18.7-4.2-15.4-4.2-59.3 0-74.7 5.4-4.3 8.9-11.1 8.9-18.6zM128 134c0-3.3 2.7-6 6-6h212c3.3 0 6 2.7 6 6v20c0 3.3-2.7 6-6 6H134c-3.3 0-6-2.7-6-6v-20zm0 64c0-3.3 2.7-6 6-6h212c3.3 0 6 2.7 6 6v20c0 3.3-2.7 6-6 6H134c-3.3 0-6-2.7-6-6v-20zm253.4 250H96c-17.7 0-32-14.3-32-32 0-17.6 14.4-32 32-32h285.4c-1.9 17.1-1.9 46.9 0 64z"
     id="path2" />
  <path
     style="fill:#ffffff;stroke-width:0.89026058"
     d="M 85.655011,511.07724 C 48.509678,506.24015 18.590791,482.44921 5.9751724,447.71733 0.32325555,432.15711 0.57895326,441.90854 0.85835078,252.57938 L 1.1125114,80.351583 3.0340194,73.229499 C 12.831128,36.916436 41.211918,9.7871832 77.041527,2.4855732 85.807157,0.69925172 88.396934,0.67354001 257.61515,0.69281148 c 170.72683,0.0194433 171.70271,0.0296133 175.68663,1.83088992 4.90404,2.2173012 9.3156,6.3258228 11.87396,11.0583366 l 1.92508,3.561043 0.23145,173.121739 c 0.25658,191.90176 0.68732,177.65306 -5.59231,184.9894 -4.82807,5.64051 -5.32227,9.42212 -5.32227,40.72561 0,31.27629 0.49667,35.08799 5.3039,40.70414 4.72335,5.51819 5.82436,9.94056 5.82436,23.39462 0,17.11219 -2.59016,22.97823 -12.59225,28.51827 l -4.76784,2.64085 -170.93003,0.0937 c -94.01152,0.0516 -172.131889,-0.0628 -173.600819,-0.25413 z M 381.22153,415.96696 v -32.5074 l -146.44787,0.23545 -146.447867,0.23544 -5.090568,2.38595 c -6.724427,3.15174 -13.128441,9.27183 -16.341782,15.61729 -2.36286,4.666 -2.604686,5.97008 -2.604686,14.04614 0,7.26851 0.356112,9.67344 1.940121,13.10217 3.916961,8.47861 13.426978,16.33086 22.315848,18.42581 1.857636,0.43782 67.599554,0.8274 148.009454,0.87711 l 144.66735,0.0894 z M 350.50754,222.34815 c 1.60959,-1.60959 1.78052,-2.96753 1.78052,-14.14555 0,-10.84797 -0.20879,-12.62287 -1.70183,-14.46673 l -1.70183,-2.10171 H 240.28743 c -105.54218,0 -108.64969,0.0477 -110.47101,1.69594 -1.74125,1.57577 -1.87403,2.61158 -1.87403,14.6192 0,10.77591 0.24482,13.19378 1.47337,14.55132 1.41208,1.56033 6.00404,1.62805 110.39232,1.62805 107.73193,0 108.93835,-0.0194 110.69946,-1.78052 z m 0,-64.09876 c 1.6086,-1.60861 1.78052,-2.96754 1.78052,-14.07402 0,-9.2119 -0.31674,-12.72667 -1.26359,-14.0216 -1.23736,-1.69225 -3.53198,-1.73281 -110.54088,-1.95421 -100.7333,-0.20842 -109.40487,-0.11063 -110.90924,1.2508 -1.43966,1.30288 -1.63196,2.99967 -1.63196,14.40017 0,10.77591 0.24482,13.19379 1.47337,14.55132 1.41208,1.56034 6.00404,1.62806 110.39232,1.62806 107.73193,0 108.93835,-0.0194 110.69946,-1.78052 z"
     id="path12"
     inkscape:connector-curvature="0" />
</svg>
