<?xml version="1.0" encoding="UTF-8" standalone="no"?>
<svg
   xmlns:dc="http://purl.org/dc/elements/1.1/"
   xmlns:cc="http://creativecommons.org/ns#"
   xmlns:rdf="http://www.w3.org/1999/02/22-rdf-syntax-ns#"
   xmlns:svg="http://www.w3.org/2000/svg"
   xmlns="http://www.w3.org/2000/svg"
   xmlns:sodipodi="http://sodipodi.sourceforge.net/DTD/sodipodi-0.dtd"
   xmlns:inkscape="http://www.inkscape.org/namespaces/inkscape"
   viewBox="0 0 576 512"
   version="1.1"
   id="svg4"
   sodipodi:docname="home.svg"
   inkscape:version="0.92.1 r15371">
  <metadata
     id="metadata10">
    <rdf:RDF>
      <cc:Work
         rdf:about="">
        <dc:format>image/svg+xml</dc:format>
        <dc:type
           rdf:resource="http://purl.org/dc/dcmitype/StillImage" />
      </cc:Work>
    </rdf:RDF>
  </metadata>
  <defs
     id="defs8" />
  <sodipodi:namedview
     pagecolor="#ffffff"
     bordercolor="#666666"
     borderopacity="1"
     objecttolerance="10"
     gridtolerance="10"
     guidetolerance="10"
     inkscape:pageopacity="0"
     inkscape:pageshadow="2"
     inkscape:window-width="1360"
     inkscape:window-height="705"
     id="namedview6"
     showgrid="false"
     inkscape:zoom="1.1232666"
     inkscape:cx="111.81894"
     inkscape:cy="256"
     inkscape:window-x="-8"
     inkscape:window-y="-8"
     inkscape:window-maximized="1"
     inkscape:current-layer="svg4" />
  <path
     d="M488 312.7V456c0 13.3-10.7 24-24 24H348c-6.6 0-12-5.4-12-12V356c0-6.6-5.4-12-12-12h-72c-6.6 0-12 5.4-12 12v112c0 6.6-5.4 12-12 12H112c-13.3 0-24-10.7-24-24V312.7c0-3.6 1.6-7 4.4-9.3l188-154.8c4.4-3.6 10.8-3.6 15.3 0l188 154.8c2.7 2.3 4.3 5.7 4.3 9.3zm83.6-60.9L488 182.9V44.4c0-6.6-5.4-12-12-12h-56c-6.6 0-12 5.4-12 12V117l-89.5-73.7c-17.7-14.6-43.3-14.6-61 0L4.4 251.8c-5.1 4.2-5.8 11.8-1.6 16.9l25.5 31c4.2 5.1 11.8 5.8 16.9 1.6l235.2-193.7c4.4-3.6 10.8-3.6 15.3 0l235.2 193.7c5.1 4.2 12.7 3.5 16.9-1.6l25.5-31c4.2-5.2 3.4-12.7-1.7-16.9z"
     id="path2" />
  <path
     style="fill:#ffffff;stroke-width:0.89026058"
     d="m 104.14965,478.19377 c -5.254674,-1.86358 -10.937291,-7.09784 -13.364277,-12.30984 l -2.095819,-4.50081 -0.0028,-76.11728 c -0.0026,-70.90226 0.103508,-76.27675 1.549259,-78.44493 C 91.433539,305.025 258.012,167.05957 279.29743,150.23441 c 3.85595,-3.04796 5.12382,-3.55841 8.83843,-3.55841 3.84082,0 4.92604,0.47782 9.49037,4.17857 27.58331,22.36452 185.51365,152.86862 187.21193,154.70064 l 2.22565,2.40092 0.23741,75.77137 c 0.27006,86.19284 0.65149,81.3028 -6.93322,88.88752 -7.23892,7.23892 -4.91019,7.01892 -74.25692,7.01511 -58.49501,-0.004 -60.69747,-0.0636 -63.44369,-1.73802 -6.39537,-3.89951 -6.00798,0.0872 -6.50275,-66.92004 l -0.44513,-60.28424 -2.22565,-2.41146 c -4.43226,-4.8023 -4.90409,-4.85278 -45.35668,-4.85278 -40.91789,0 -42.67237,0.19784 -46.06468,5.19448 -1.50359,2.21471 -1.64052,6.37746 -2.05601,62.50552 -0.49476,66.83783 -0.10828,62.86956 -6.50275,66.76852 -2.75029,1.67696 -4.88967,1.73247 -64.27297,1.66774 -51.44942,-0.0561 -62.02302,-0.27799 -65.09109,-1.36608 z"
     id="path12"
     inkscape:connector-curvature="0" />
  <path
     style="fill:#ffffff;stroke-width:0.89026058"
     d="M 30.569855,300.75583 C 26.659125,297.32217 2.0826181,267.30546 1.1326203,264.80244 -0.03099588,261.73659 1.0839434,256.21327 3.3567307,253.78439 4.4985656,252.56413 62.623987,204.42929 132.52433,146.81806 214.40265,79.334705 261.75126,40.891823 265.61829,38.757535 c 16.50469,-9.109229 36.52609,-7.513511 51.40302,4.096851 1.95709,1.527369 23.18981,18.94132 47.18381,38.697671 l 43.62547,35.920633 0.44513,-38.186721 c 0.49332,-42.320792 0.30821,-41.044928 6.50275,-44.821981 2.67241,-1.62947 4.68184,-1.734893 33.12773,-1.738019 33.88109,-0.0037 34.67456,0.127561 37.97596,6.283393 1.53626,2.864516 1.62675,6.955131 1.62675,73.540608 v 70.50736 l 42.40915,34.95856 c 23.32503,19.22721 43.15409,36.18014 44.06457,37.67319 2.1384,3.50662 2.10103,7.32534 -0.10711,10.94694 -2.60529,4.273 -25.48417,31.8262 -28.61319,34.4591 -2.97144,2.50029 -8.31293,3.06067 -11.73207,1.23081 -1.06461,-0.56977 -55.06715,-44.79474 -120.00564,-98.27771 -64.93848,-53.48298 -118.89932,-97.68563 -119.91298,-98.22812 -2.41173,-1.29072 -8.68267,-1.26279 -11.13487,0.0496 -1.06461,0.56976 -55.06715,44.79473 -120.00564,98.2777 -64.938482,53.48298 -118.899324,97.68564 -119.912979,98.22813 -3.561188,1.90589 -8.775207,1.20145 -11.988296,-1.61969 z"
     id="path14"
     inkscape:connector-curvature="0" />
</svg>
